<svg width="507" height="543" viewBox="0 0 507 543" fill="none" xmlns="http://www.w3.org/2000/svg">
<g opacity="0.15">
<path d="M341.879 152.857L454 0.198242L365.66 0.198238C344.824 0.198367 324.307 4.90051 305.906 13.8925C287.506 22.8844 271.784 35.8916 260.118 51.7739L148 204.43L236.338 204.43C257.173 204.43 277.69 199.729 296.091 190.737C314.491 181.746 330.214 168.739 341.879 152.857Z" fill="#C0D725"/>
<path d="M96.9408 322.653L153 246.324L108.831 246.324C98.4137 246.323 88.1551 248.674 78.9549 253.17C69.7547 257.666 61.8939 264.169 56.0618 272.111L-4.85986e-06 348.44L44.1714 348.44C54.5889 348.44 64.8475 346.09 74.0477 341.594C83.2479 337.098 91.1087 330.594 96.9408 322.653Z" fill="#0F4C81"/>
<path d="M507 275.999L390.16 275.999C363.658 275.998 337.561 281.991 314.156 293.453C290.751 304.914 270.753 321.494 255.916 341.74L109 542.198L311.913 542.198L507 275.999Z" fill="#0F4C81"/>
</g>
</svg>
