<?xml version="1.0" encoding="UTF-8"?><!DOCTYPE svg PUBLIC "-//W3C//DTD SVG 1.1//EN" "http://www.w3.org/Graphics/SVG/1.1/DTD/svg11.dtd"><svg xmlns="http://www.w3.org/2000/svg" xmlns:xlink="http://www.w3.org/1999/xlink"><defs>
<clipPath id="clip0_504_1073">
<rect width="60" height="60" fill="white"/>
</clipPath>
</defs><symbol id="arrow-double" viewBox="0 0 28 28"><g fill="none">
<path fill-rule="evenodd" clip-rule="evenodd" d="M4.63075 13.3813C4.97241 13.0396 5.52634 13.0396 5.868 13.3813L13.998 21.5126L22.1281 13.3813C22.4697 13.0396 23.0237 13.0396 23.3653 13.3813C23.707 13.723 23.707 14.277 23.3653 14.6187L14.6167 23.3687C14.275 23.7104 13.7211 23.7104 13.3794 23.3687L4.63075 14.6187C4.2891 14.277 4.2891 13.723 4.63075 13.3813Z" fill="currentColor"/>
<path fill-rule="evenodd" clip-rule="evenodd" d="M4.63075 4.63128C4.97241 4.28957 5.52634 4.28957 5.868 4.63128L13.998 12.7626L22.1281 4.63128C22.4697 4.28957 23.0237 4.28957 23.3653 4.63128C23.707 4.97299 23.707 5.52701 23.3653 5.86872L14.6167 14.6187C14.275 14.9604 13.7211 14.9604 13.3794 14.6187L4.63075 5.86872C4.2891 5.52701 4.2891 4.97299 4.63075 4.63128Z" fill="currentColor"/>
</g></symbol><symbol id="arrow-light" viewBox="0 0 30 27"><g fill="none">
<path fill-rule="evenodd" clip-rule="evenodd" d="M20.5282 8.52796C20.7889 8.20609 21.2612 8.15651 21.5831 8.41723L27.1386 12.9172C27.3144 13.0596 27.4166 13.2738 27.4166 13.5C27.4166 13.7263 27.3144 13.9404 27.1386 14.0828L21.5831 18.5828C21.2612 18.8435 20.7889 18.794 20.5282 18.4721C20.2675 18.1502 20.3171 17.6779 20.6389 17.4172L24.5491 14.25H4.44434C4.03012 14.25 3.69434 13.9142 3.69434 13.5C3.69434 13.0858 4.03012 12.75 4.44434 12.75H24.5491L20.6389 9.58282C20.3171 9.32211 20.2675 8.84983 20.5282 8.52796Z" fill="currentColor"/>
</g></symbol><symbol id="arrow-up" viewBox="0 0 24 24"><g fill="none">
<path fill-rule="evenodd" clip-rule="evenodd" d="M12 3C12.4142 3 12.75 3.33579 12.75 3.75V20.25C12.75 20.6642 12.4142 21 12 21C11.5858 21 11.25 20.6642 11.25 20.25V3.75C11.25 3.33579 11.5858 3 12 3Z" fill="currentColor"/>
<path fill-rule="evenodd" clip-rule="evenodd" d="M11.4697 3.21967C11.7626 2.92678 12.2374 2.92678 12.5303 3.21967L19.2803 9.96967C19.5732 10.2626 19.5732 10.7374 19.2803 11.0303C18.9874 11.3232 18.5126 11.3232 18.2197 11.0303L12 4.81066L5.78033 11.0303C5.48744 11.3232 5.01256 11.3232 4.71967 11.0303C4.42678 10.7374 4.42678 10.2626 4.71967 9.96967L11.4697 3.21967Z" fill="currentColor"/>
</g></symbol><symbol id="check" viewBox="0 0 14 14"><g fill="none">
<path fill-rule="evenodd" clip-rule="evenodd" d="M5.2069 11C5.4782 11 5.73786 10.8898 5.9263 10.6946L11.7194 4.6946C12.103 4.29728 12.0919 3.66421 11.6946 3.2806C11.2973 2.89699 10.6642 2.90809 10.2806 3.30541L5.2069 8.56031L3.7194 7.01969C3.33579 6.62238 2.70272 6.61127 2.30541 6.99489C1.90809 7.3785 1.89699 8.01157 2.2806 8.40888L4.4875 10.6946C4.67594 10.8898 4.9356 11 5.2069 11Z" fill="currentColor"/>
</g></symbol><symbol id="close" viewBox="0 0 18 18"><g fill="none">
<path fill-rule="evenodd" clip-rule="evenodd" d="M14.2071 3.79289C14.5976 4.18342 14.5976 4.81658 14.2071 5.20711L5.20711 14.2071C4.81658 14.5976 4.18342 14.5976 3.79289 14.2071C3.40237 13.8166 3.40237 13.1834 3.79289 12.7929L12.7929 3.79289C13.1834 3.40237 13.8166 3.40237 14.2071 3.79289Z" fill="currentColor"/>
<path fill-rule="evenodd" clip-rule="evenodd" d="M3.79289 3.79289C4.18342 3.40237 4.81658 3.40237 5.20711 3.79289L14.2071 12.7929C14.5976 13.1834 14.5976 13.8166 14.2071 14.2071C13.8166 14.5976 13.1834 14.5976 12.7929 14.2071L3.79289 5.20711C3.40237 4.81658 3.40237 4.18342 3.79289 3.79289Z" fill="currentColor"/>
</g></symbol><symbol id="footer-menager" viewBox="0 0 100 100"><g fill="none">
<path d="M70.3217 63.4749H63.3339V56.6671C65.0146 54.6858 66.3125 52.5029 67.4006 50.3122C67.8265 50.2361 68.3082 50.096 68.7321 49.8932C70.6787 48.9614 72.4717 46.6909 73.4828 43.8192C74.6486 40.5098 74.5225 37.0293 73.2307 35.1033C73.4035 31.5285 73.299 21.5658 67.0473 14.5791C66.01 13.42 64.8604 12.4161 63.6011 11.56C62.511 4.93908 57.0688 0 50.323 0C43.6841 0 37.6295 4.82155 36.4355 11.3071C34.0576 12.6723 32.0531 14.4414 30.4739 16.6058C27.0214 21.3388 25.9386 28.0291 27.3108 35.1033C25.5302 36.8798 25.1474 40.006 26.4893 43.8196C27.1646 45.7365 28.2029 47.4368 29.4127 48.6085C30.4114 49.5747 31.5099 50.159 32.6014 50.3277C33.7423 52.6218 35.0973 54.9064 36.778 56.958V63.4749H29.6783C19.6426 63.4749 12 80.7687 12 89.381C12 90.3438 12.5553 91.2618 13.4253 91.671C26.9121 98.0137 39.6285 100 50.2108 100C55.781 100 60.7607 99.4659 64.9478 98.7284C78.1341 96.406 86.3909 91.8192 86.7361 91.6249C87.5166 91.185 88 90.2758 88 89.3786C88 80.7664 80.357 63.4749 70.3217 63.4749ZM32.8404 39.2092C33.9262 37.9349 37.0133 34.126 38.9082 29.9187C42.8579 34.0388 51.3258 38.9061 69.3177 38.932C69.3896 39.6207 69.3351 40.7499 68.836 42.1671C68.1694 44.0587 67.207 45.0586 66.768 45.3468C66.2557 45.1785 65.699 45.1805 65.1827 45.3596C64.534 45.5846 64.0079 46.0685 63.7292 46.6973C61.0609 52.7124 55.8264 59.7367 50 59.7367C46.9306 59.7367 44.0936 57.7888 41.6558 55.066C42.8246 55.2886 43.8942 55.3627 44.7823 55.3627C44.8923 55.3627 44.9985 55.385 45.1027 55.3833C45.7293 56.1929 46.7071 56.7398 47.809 56.7398H52.1913C54.0835 56.7398 55.6025 55.1553 55.6025 53.2596V52.1792C55.6025 50.2836 54.0832 48.6573 52.1913 48.6573H47.8087C46.5582 48.6573 45.4674 49.3756 44.8694 50.3775C43.866 50.3957 42.4263 50.3061 40.8847 49.7292C37.1041 48.3148 34.3638 44.6881 32.8404 39.2092ZM50.324 4.96568C53.2845 4.96568 55.576 6.45051 57.1875 8.74762C55.1481 8.2327 52.5776 7.96766 50.2245 7.96766V7.96867C47.5354 7.98988 44.9813 8.29129 42.6374 8.85976C44.2428 6.50001 47.3256 4.96568 50.324 4.96568ZM34.4263 19.5361C37.5357 15.2732 42.829 12.9903 50.2242 12.9344V12.9333C55.6025 12.9333 60.3543 14.5967 63.299 17.8768C67.7183 22.8007 68.3109 30.2757 68.2948 33.9613C55.1672 33.7986 48.2668 30.8987 44.7585 28.4544C41.2162 25.9869 40.4824 23.5945 40.4017 23.2975C40.1976 22.0258 39.0588 21.1741 37.7821 21.2688C36.4886 21.3661 35.5 22.4983 35.5 23.7979C35.5 26.0869 33.7833 29.3752 31.8864 32.2131C31.2081 27.1831 32.0525 22.7899 34.4263 19.5361ZM39.2608 68.5264C40.6292 68.5264 41.4841 67.4979 41.4841 66.1266V61.7846C44.1732 63.582 46.8722 64.7021 49.8877 64.7021C52.9937 64.7021 55.9384 63.5153 58.6275 61.6209V66.1266C58.6275 67.4979 59.7002 68.5264 61.0693 68.5264H63.7225L50 79.2785L36.2775 68.5264H39.2608ZM64.0892 93.8482C52.9504 95.8106 35.864 96.3221 17.0469 87.913C17.8059 80.9741 23.2313 70.2951 28.4668 68.7938L48.4736 84.4698C48.9223 84.8211 49.4608 84.9965 50.0003 84.9965C50.5395 84.9965 51.0784 84.8211 51.5271 84.4698L71.5339 68.7938C76.7872 70.3005 82.2321 81.0489 82.9612 87.9854C80.2273 89.2998 73.4802 92.194 64.0892 93.8482Z" fill="currentColor"/>
</g></symbol><symbol id="footer-phone" viewBox="0 0 75 73"><g fill="none">
<path fill-rule="evenodd" clip-rule="evenodd" d="M38 60C51.274 60 62 49.4597 62 36.5C62 23.5403 51.274 13 38 13C24.726 13 14 23.5403 14 36.5C14 49.4597 24.726 60 38 60ZM38 61C51.8071 61 63 50.031 63 36.5C63 22.969 51.8071 12 38 12C24.1929 12 13 22.969 13 36.5C13 50.031 24.1929 61 38 61Z" fill="currentColor"/>
<path fill-rule="evenodd" clip-rule="evenodd" d="M27.2088 20.7679C28.9446 19.0322 31.7822 19.094 33.5465 20.8583L36.979 24.2908C38.7433 26.0551 38.8051 28.8927 37.0694 30.6285L36.5934 31.1045C35.9483 31.7496 35.8838 32.7914 36.4862 33.5213C37.218 34.4082 38.0055 35.2897 38.8579 36.1421C39.7103 36.9945 40.5918 37.782 41.4787 38.5138C42.2086 39.1162 43.2504 39.0517 43.8955 38.4066L44.3715 37.9306C46.1073 36.1949 48.9449 36.2567 50.7092 38.021L54.1417 41.4535C55.906 43.2178 55.9678 46.0554 54.2321 47.7912L52.016 50.0073C50.1127 51.9105 46.85 51.8711 43.327 50.5785C39.7607 49.27 35.7294 46.6164 32.0565 42.9435C28.3836 39.2706 25.73 35.2394 24.4215 31.673C23.1289 28.15 23.0895 24.8873 24.9927 22.984L27.2088 20.7679ZM32.8394 21.5654C31.4441 20.1701 29.2399 20.151 27.9159 21.475L25.6998 23.6911C24.2373 25.1536 24.0963 27.8836 25.3603 31.3286C26.6084 34.7302 29.1695 38.6423 32.7636 42.2364C36.3577 45.8305 40.2698 48.3916 43.6714 49.6397C47.1164 50.9037 49.8464 50.7627 51.3089 49.3002L53.525 47.0841C54.849 45.7601 54.8299 43.5559 53.4346 42.1606L50.0021 38.7281C48.6068 37.3328 46.4027 37.3137 45.0786 38.6377L44.6026 39.1137C43.5957 40.1207 41.9724 40.2178 40.8422 39.2851C39.9348 38.5363 39.0291 37.7275 38.1508 36.8492C37.2725 35.9709 36.4637 35.0652 35.7149 34.1578C34.7822 33.0276 34.8793 31.4043 35.8863 30.3974L36.3623 29.9214C37.6863 28.5973 37.6672 26.3932 36.2719 24.9979L32.8394 21.5654Z" fill="currentColor"/>
<path fill-rule="evenodd" clip-rule="evenodd" d="M74.7883 40.4013C74.8244 40.0707 74.856 39.7388 74.8829 39.4057C74.9605 38.447 75 37.478 75 36.5C75 35.522 74.9605 34.553 74.8829 33.5943C74.856 33.2612 74.8244 32.9293 74.7883 32.5987C74.752 32.2663 74.7111 31.9351 74.6657 31.6054L72.7281 31.7622L72.8894 33.7556C72.9627 34.6607 73 35.5759 73 36.5C73 37.4241 72.9627 38.3393 72.8894 39.2444L72.7281 41.2378L74.6657 41.3946C74.7111 41.0649 74.752 40.7337 74.7883 40.4013ZM67.1418 58.8601L65.6884 57.5663L64.3586 59.0602C60.7381 63.1273 56.1547 66.3656 50.9511 68.4378L49.093 69.1777L49.8134 70.9867C50.1299 70.8797 50.4445 70.7686 50.7571 70.6536C51.0705 70.5383 51.3818 70.4191 51.6911 70.2959C57.1845 68.1083 62.0258 64.6887 65.8525 60.39C66.0742 60.1409 66.2924 59.8889 66.5073 59.6341C66.7223 59.3789 66.9338 59.1209 67.1418 58.8601ZM42.3969 72.6916L42.2519 70.7487L40.2575 70.8976C39.3478 70.9654 38.4283 71 37.5 71C36.5717 71 35.6522 70.9654 34.7425 70.8976L32.7481 70.7487L32.6031 72.6916C32.9332 72.7335 33.2647 72.7712 33.5974 72.8047C33.9283 72.838 34.2604 72.8671 34.5937 72.892C35.5528 72.9636 36.522 73 37.5 73C38.478 73 39.4472 72.9636 40.4063 72.892C40.7396 72.8671 41.0717 72.838 41.4026 72.8047C41.7353 72.7712 42.0668 72.7335 42.3969 72.6916ZM14.9151 65.6404L16.1504 64.1359L14.6046 62.8668C10.339 59.3648 6.93931 54.9072 4.75137 49.8414L3.95836 48.0054L2.17378 48.7761C2.28881 49.0897 2.40812 49.4013 2.53165 49.7109C2.65534 50.0208 2.78324 50.3287 2.91531 50.6344C5.23292 56.0004 8.83027 60.7138 13.3355 64.4126C13.593 64.624 13.8535 64.8321 14.1169 65.0368C14.3801 65.2414 14.6462 65.4427 14.9151 65.6404ZM0.334267 41.3946L2.27188 41.2378L2.11057 39.2444C2.03734 38.3393 2 37.4241 2 36.5C2 35.5759 2.03734 34.6607 2.11057 33.7556L2.27188 31.7622L0.334267 31.6054C0.288863 31.9351 0.247983 32.2663 0.211688 32.5987C0.175601 32.9293 0.144047 33.2612 0.117089 33.5943C0.0395195 34.553 0 35.522 0 36.5C0 37.478 0.0395194 38.447 0.117089 39.4057C0.144047 39.7388 0.175601 40.0707 0.211688 40.4013C0.247982 40.7337 0.288863 41.0649 0.334267 41.3946ZM7.85819 14.1399L9.31158 15.4337L10.6414 13.9398C14.2619 9.87271 18.8453 6.63435 24.0489 4.56219L25.907 3.82225L25.1866 2.01327C24.8701 2.12033 24.5555 2.23139 24.2429 2.3464C23.9295 2.46169 23.6182 2.58094 23.3089 2.7041C17.8155 4.8917 12.9742 8.31132 9.14754 12.61C8.92584 12.8591 8.70755 13.1111 8.49273 13.3659C8.27771 13.6211 8.06618 13.8791 7.85819 14.1399ZM32.6031 0.308388L32.7481 2.25125L34.7425 2.10245C35.6522 2.03459 36.5717 2 37.5 2C38.4283 2 39.3478 2.03459 40.2575 2.10245L42.2519 2.25125L42.3969 0.308388C42.0668 0.266483 41.7353 0.228758 41.4026 0.195268C41.0717 0.161972 40.7396 0.132862 40.4063 0.107993C39.4472 0.0364373 38.478 0 37.5 0C36.522 0 35.5528 0.0364373 34.5937 0.107993C34.2604 0.132862 33.9283 0.161972 33.5974 0.195268C33.2647 0.228758 32.9332 0.266483 32.6031 0.308388ZM60.0849 7.35955L58.8496 8.86408L60.3954 10.1332C64.661 13.6352 68.0607 18.0928 70.2486 23.1586L71.0416 24.9946L72.8262 24.2239C72.7112 23.9103 72.5919 23.5987 72.4683 23.2891C72.3447 22.9792 72.2168 22.6713 72.0847 22.3656C69.7671 16.9996 66.1697 12.2862 61.6645 8.58739C61.407 8.37598 61.1465 8.16788 60.8831 7.96316C60.6199 7.75855 60.3538 7.55733 60.0849 7.35955Z" fill="currentColor"/>
</g></symbol><symbol id="footer-tg" viewBox="0 0 60 60"><g fill="none">
<path d="M60 30C60 37.9565 56.8393 45.5871 51.2132 51.2132C45.5871 56.8393 37.9565 60 30 60C22.0435 60 14.4129 56.8393 8.7868 51.2132C3.16071 45.5871 0 37.9565 0 30C0 22.0435 3.16071 14.4129 8.7868 8.7868C14.4129 3.16071 22.0435 0 30 0C37.9565 0 45.5871 3.16071 51.2132 8.7868C56.8393 14.4129 60 22.0435 60 30ZM31.0762 22.1475C28.1587 23.3625 22.3237 25.875 13.5787 29.685C12.1612 30.2475 11.415 30.8025 11.3475 31.3425C11.2351 32.2528 12.3763 32.613 13.9299 33.1034L13.935 33.105L14.5912 33.3113C16.1212 33.81 18.1837 34.3912 19.2525 34.4137C20.2275 34.4362 21.3112 34.0388 22.5075 33.2138C30.6787 27.6975 34.8975 24.9113 35.16 24.8513C35.3475 24.8063 35.61 24.7537 35.7825 24.9112C35.9587 25.065 35.94 25.3612 35.9212 25.44C35.8107 25.9153 31.4746 29.9501 29.1216 32.1394C29.08 32.1781 29.0391 32.2162 28.9987 32.2537C28.275 32.9287 27.7613 33.405 27.6562 33.5137C27.425 33.75 27.19 33.9826 26.9512 34.2112C25.5262 35.5837 24.4612 36.6113 27.0075 38.2913C28.2337 39.1013 29.2162 39.765 30.195 40.4325C31.26 41.16 32.325 41.8837 33.705 42.7912C34.0537 43.0162 34.3912 43.26 34.7175 43.4925C35.9587 44.3775 37.08 45.1725 38.4562 45.045C39.2587 44.97 40.0875 44.22 40.5075 41.97C41.5012 36.6563 43.455 25.1475 43.905 20.4037C43.9325 20.0094 43.9161 19.6132 43.8562 19.2225C43.8209 18.9072 43.6683 18.6167 43.4287 18.4087C43.0875 18.1732 42.6808 18.0512 42.2662 18.06C41.1412 18.0788 39.405 18.6825 31.0762 22.1475Z" fill="currentColor"/>
</g></symbol><symbol id="footer-vk" viewBox="0 0 60 60"><g fill="none">
<g clip-path="url(#clip0_504_1073)">
<path fill-rule="evenodd" clip-rule="evenodd" d="M60 30C60 46.5685 46.5685 60 30 60C13.4315 60 0 46.5685 0 30C0 13.4315 13.4315 0 30 0C46.5685 0 60 13.4315 60 30ZM16 25.7022C16 17.8575 17.8575 16 25.7022 16H34.2978C42.1227 16 44 17.8575 44 25.7022V34.2978C44 42.1425 42.1425 44 34.2978 44H25.7022C17.8575 44 16 42.1425 16 34.2978V25.7022ZM36.5681 35.9772H38.6055C39.1783 35.9772 39.4752 35.6809 39.2743 35.1081C39.0968 34.5353 38.425 33.7069 37.5553 32.7173C37.3142 32.4342 37.0095 32.1356 36.7403 31.8719C36.4832 31.62 36.2585 31.3998 36.1524 31.2551C35.8561 30.8604 35.9353 30.702 36.1524 30.3464C36.1524 30.3464 38.6422 26.8292 38.8989 25.6434C39.0374 25.2086 38.8989 24.8925 38.2865 24.8925H36.2491C35.7351 24.8925 35.4981 25.169 35.3596 25.4653C35.3596 25.4653 34.3124 27.9946 32.8501 29.6344C32.3762 30.1083 32.1585 30.2666 31.9018 30.2666C31.783 30.2666 31.5857 30.1089 31.5857 29.674V25.6236C31.5857 25.1096 31.4279 24.8727 30.9931 24.8727H27.7914C27.4748 24.8727 27.2774 25.1102 27.2774 25.3471C27.2774 25.536 27.3845 25.6701 27.5212 25.8411C27.7416 26.1169 28.0389 26.4889 28.0877 27.3426V30.3464C28.0877 31.0007 27.969 31.1171 27.7123 31.1171C27.0236 31.1171 25.3436 28.568 24.336 25.6632C24.1386 25.1096 23.9413 24.8727 23.4273 24.8727H21.3899C20.8147 24.8727 20.6983 25.1492 20.6983 25.4455C20.6983 25.9985 21.3899 28.6664 23.9192 32.2231C25.5992 34.6541 27.9899 35.958 30.1438 35.958C31.4477 35.958 31.6061 35.6617 31.6061 35.1675V33.3297C31.6061 32.7546 31.7248 32.6382 32.1399 32.6382C32.4385 32.6382 32.9717 32.7977 34.1773 33.9619C34.5757 34.366 34.8789 34.7045 35.1273 34.9816C35.7412 35.6668 36.0193 35.9772 36.5681 35.9772Z" fill="currentColor"/>
</g>

</g></symbol><symbol id="mail" viewBox="0 0 25 18"><g fill="none">
<path d="M22.0845 0H2.91553C1.30508 0 0 1.29962 0 2.90289V14.7441C0 16.3474 1.30508 17.6471 2.91553 17.6471H22.0845C23.6945 17.6471 25 16.3474 25 14.7441V2.90289C25 1.29962 23.6945 0 22.0845 0ZM23.6079 15.5263L23.0529 16.1808L15.2811 9.86442L14.0775 11.0048C13.1855 11.8206 11.8146 11.8206 10.9225 11.0048L9.7189 9.86442L1.94707 16.1808L1.39209 15.5263L8.68896 8.8883L1.34429 2.01463L1.77852 1.4417L12.5 9.53149L23.2214 1.4417L23.6553 2.01463L16.3111 8.8883L23.6079 15.5263Z" fill="currentColor"/>
</g></symbol><symbol id="phone" viewBox="0 0 32 32"><g fill="none">
<path d="M8.68004 23.3186C16.1803 30.8201 25.0766 34.0846 28.5504 30.6103L30.8376 28.3227C32.4166 26.7435 32.3749 24.1413 30.7444 22.5105L27.2017 18.9672C25.5712 17.3365 22.9694 17.2948 21.3903 18.874L20.8991 19.3654C20.0465 20.218 18.6712 20.3014 17.7113 19.5092C16.7854 18.7449 15.8631 17.9211 14.9699 17.0278C14.0768 16.1345 13.253 15.2121 12.4889 14.286C11.6968 13.3259 11.7802 11.9504 12.6327 11.0977L13.124 10.6064C14.703 9.02713 14.6613 6.42491 13.0308 4.79417L9.48803 1.2509C7.85754 -0.379844 5.25572 -0.42159 3.67672 1.15766L1.38948 3.44524C-2.08432 6.9196 1.17977 15.8172 8.68004 23.3186Z" fill="currentColor"/>
</g></symbol><symbol id="pin" viewBox="0 0 30 40"><g fill="none">
<path d="M15 0C6.72904 0 0 6.63048 0 14.7806C0 22.6711 13.6747 38.9667 14.2568 39.6565C14.4404 39.874 14.7128 40 15 40C15.2871 40 15.5596 39.8742 15.7432 39.6565C16.3254 38.9666 30 22.6711 30 14.7806C30 6.63048 23.2711 0 15 0ZM15 37.5363C13.7875 36.0443 11.2682 32.8656 8.77522 29.2319C4.29908 22.7076 1.93304 17.7103 1.93304 14.7806C1.93304 7.68076 7.79492 1.90476 15 1.90476C22.2051 1.90476 28.067 7.68076 28.067 14.7806C28.067 17.7102 25.701 22.7074 21.2248 29.2319C18.7317 32.8656 16.2125 36.0443 15 37.5363Z" fill="currentColor"/>
<path d="M19.5953 27.1658C19.1747 26.8668 18.6033 26.9833 18.3192 27.4259C17.0789 29.3581 15.6894 31.3831 14.1894 33.4447C13.8808 33.8689 13.9573 34.4759 14.3604 34.8006C14.527 34.935 14.7235 35 14.9185 35C15.1947 35 15.468 34.8694 15.6488 34.6207C17.1709 32.5289 18.5818 30.4726 19.8424 28.5089C20.1265 28.0663 20.016 27.4649 19.5953 27.1658Z" fill="currentColor"/>
<path d="M15 7C10.5888 7 7 10.5888 7 15C7 19.4112 10.5888 23 15 23C19.4112 23 23 19.4112 23 15C23 10.5888 19.4112 7 15 7ZM15 21.0488C11.6647 21.0488 8.95122 18.3353 8.95122 15C8.95122 11.6647 11.6647 8.95122 15 8.95122C18.3354 8.95122 21.0488 11.6647 21.0488 15C21.0488 18.3353 18.3354 21.0488 15 21.0488Z" fill="currentColor"/>
</g></symbol><symbol id="tg" viewBox="0 0 21 18"><g fill="none">
<path d="M19.2097 0.154495C19.2097 0.154495 21.1523 -0.603005 20.9904 1.23664C20.9365 1.99415 20.4508 4.6454 20.0731 7.5131L18.778 16.0079C18.778 16.0079 18.6701 17.2524 17.6987 17.4688C16.7274 17.6852 15.2704 16.7113 15.0006 16.4949C14.7847 16.3326 10.9534 13.8977 9.6043 12.7074C9.22655 12.3827 8.79485 11.7335 9.65825 10.976L15.3244 5.56525C15.9719 4.91595 16.6195 3.40095 13.9213 5.2406L6.36655 10.3808C6.36655 10.3808 5.50315 10.9219 3.8843 10.4349L0.376711 9.35275C0.376711 9.35275 -0.918395 8.54115 1.29408 7.7295C6.69035 5.18645 13.3278 2.5893 19.2097 0.154495Z" fill="currentColor"/>
</g></symbol><symbol id="vk" viewBox="0 0 20 12"><g fill="none">
<path d="M10.5819 12C3.9439 12 0.157759 7.49549 0 0H3.32507C3.43428 5.5015 5.88555 7.83183 7.82719 8.31231V0H10.9582V4.74474C12.8756 4.54054 14.8898 2.37838 15.5694 0H18.7003C18.1785 2.93093 15.9942 5.09309 14.4409 5.98198C15.9942 6.7027 18.482 8.58859 19.4286 12H15.982C15.2418 9.71772 13.3974 7.95195 10.9582 7.71171V12H10.5819Z" fill="currentColor"/>
</g></symbol></svg>