<svg width="375" height="93" viewBox="0 0 375 93" fill="none" xmlns="http://www.w3.org/2000/svg">
<g opacity="0.75">
<path d="M89.1368 46H86.1168V34.24H82.2368V31.72H93.0168V34.24H89.1368V46Z" fill="white"/>
<path d="M107.788 38.84C107.788 39.9467 107.648 40.9533 107.368 41.86C107.102 42.7533 106.688 43.5267 106.128 44.18C105.582 44.8333 104.875 45.3333 104.008 45.68C103.155 46.0267 102.148 46.2 100.988 46.2C99.8282 46.2 98.8149 46.0267 97.9482 45.68C97.0949 45.32 96.3882 44.82 95.8282 44.18C95.2816 43.5267 94.8682 42.7467 94.5882 41.84C94.3216 40.9333 94.1882 39.9267 94.1882 38.82C94.1882 37.34 94.4282 36.0533 94.9082 34.96C95.4016 33.8667 96.1482 33.02 97.1482 32.42C98.1616 31.8067 99.4482 31.5 101.008 31.5C102.555 31.5 103.828 31.8067 104.828 32.42C105.828 33.02 106.568 33.8733 107.048 34.98C107.542 36.0733 107.788 37.36 107.788 38.84ZM97.3682 38.84C97.3682 39.84 97.4949 40.7 97.7482 41.42C98.0016 42.14 98.3949 42.6933 98.9282 43.08C99.4616 43.4667 100.148 43.66 100.988 43.66C101.855 43.66 102.548 43.4667 103.068 43.08C103.602 42.6933 103.988 42.14 104.228 41.42C104.482 40.7 104.608 39.84 104.608 38.84C104.608 37.3333 104.328 36.1533 103.768 35.3C103.208 34.4467 102.288 34.02 101.008 34.02C100.155 34.02 99.4616 34.2133 98.9282 34.6C98.3949 34.9867 98.0016 35.54 97.7482 36.26C97.4949 36.98 97.3682 37.84 97.3682 38.84Z" fill="white"/>
<path d="M115.306 31.72C117.146 31.72 118.486 32.12 119.326 32.92C120.18 33.7067 120.606 34.7933 120.606 36.18C120.606 36.8067 120.513 37.4067 120.326 37.98C120.14 38.54 119.826 39.0467 119.386 39.5C118.96 39.94 118.393 40.2867 117.686 40.54C116.98 40.7933 116.106 40.92 115.066 40.92H113.766V46H110.746V31.72H115.306ZM115.146 34.2H113.766V38.44H114.766C115.34 38.44 115.833 38.3667 116.246 38.22C116.66 38.0733 116.98 37.84 117.206 37.52C117.433 37.2 117.546 36.7867 117.546 36.28C117.546 35.5733 117.353 35.0533 116.966 34.72C116.58 34.3733 115.973 34.2 115.146 34.2Z" fill="white"/>
<path d="M132.325 31.72V34.22H126.325V46H123.305V31.72H132.325Z" fill="white"/>
<path d="M147.085 38.84C147.085 39.9467 146.945 40.9533 146.665 41.86C146.398 42.7533 145.985 43.5267 145.425 44.18C144.878 44.8333 144.172 45.3333 143.305 45.68C142.452 46.0267 141.445 46.2 140.285 46.2C139.125 46.2 138.112 46.0267 137.245 45.68C136.392 45.32 135.685 44.82 135.125 44.18C134.578 43.5267 134.165 42.7467 133.885 41.84C133.618 40.9333 133.485 39.9267 133.485 38.82C133.485 37.34 133.725 36.0533 134.205 34.96C134.698 33.8667 135.445 33.02 136.445 32.42C137.458 31.8067 138.745 31.5 140.305 31.5C141.852 31.5 143.125 31.8067 144.125 32.42C145.125 33.02 145.865 33.8733 146.345 34.98C146.838 36.0733 147.085 37.36 147.085 38.84ZM136.665 38.84C136.665 39.84 136.792 40.7 137.045 41.42C137.298 42.14 137.692 42.6933 138.225 43.08C138.758 43.4667 139.445 43.66 140.285 43.66C141.152 43.66 141.845 43.4667 142.365 43.08C142.898 42.6933 143.285 42.14 143.525 41.42C143.778 40.7 143.905 39.84 143.905 38.84C143.905 37.3333 143.625 36.1533 143.065 35.3C142.505 34.4467 141.585 34.02 140.305 34.02C139.452 34.02 138.758 34.2133 138.225 34.6C137.692 34.9867 137.298 35.54 137.045 36.26C136.792 36.98 136.665 37.84 136.665 38.84Z" fill="white"/>
<path d="M154.483 31.72C155.75 31.72 156.81 31.84 157.663 32.08C158.53 32.3067 159.176 32.6867 159.603 33.22C160.043 33.74 160.263 34.4467 160.263 35.34C160.263 35.8733 160.176 36.36 160.003 36.8C159.83 37.24 159.576 37.6 159.243 37.88C158.923 38.16 158.53 38.34 158.063 38.42V38.52C158.543 38.6133 158.976 38.78 159.363 39.02C159.75 39.26 160.056 39.6067 160.283 40.06C160.51 40.5133 160.623 41.1133 160.623 41.86C160.623 42.7267 160.41 43.4733 159.983 44.1C159.57 44.7133 158.97 45.1867 158.183 45.52C157.396 45.84 156.463 46 155.383 46H150.043V31.72H154.483ZM154.823 37.38C155.703 37.38 156.31 37.24 156.643 36.96C156.99 36.68 157.163 36.2733 157.163 35.74C157.163 35.1933 156.963 34.8 156.563 34.56C156.163 34.32 155.53 34.2 154.663 34.2H153.063V37.38H154.823ZM153.063 39.78V43.5H155.043C155.95 43.5 156.583 43.3267 156.943 42.98C157.303 42.62 157.483 42.1467 157.483 41.56C157.483 41.2 157.403 40.8867 157.243 40.62C157.096 40.3533 156.836 40.1467 156.463 40C156.09 39.8533 155.583 39.78 154.943 39.78H153.063Z" fill="white"/>
<path d="M176.441 38.84C176.441 39.9467 176.301 40.9533 176.021 41.86C175.754 42.7533 175.341 43.5267 174.781 44.18C174.234 44.8333 173.527 45.3333 172.661 45.68C171.807 46.0267 170.801 46.2 169.641 46.2C168.481 46.2 167.467 46.0267 166.601 45.68C165.747 45.32 165.041 44.82 164.481 44.18C163.934 43.5267 163.521 42.7467 163.241 41.84C162.974 40.9333 162.841 39.9267 162.841 38.82C162.841 37.34 163.081 36.0533 163.561 34.96C164.054 33.8667 164.801 33.02 165.801 32.42C166.814 31.8067 168.101 31.5 169.661 31.5C171.207 31.5 172.481 31.8067 173.481 32.42C174.481 33.02 175.221 33.8733 175.701 34.98C176.194 36.0733 176.441 37.36 176.441 38.84ZM166.021 38.84C166.021 39.84 166.147 40.7 166.401 41.42C166.654 42.14 167.047 42.6933 167.581 43.08C168.114 43.4667 168.801 43.66 169.641 43.66C170.507 43.66 171.201 43.4667 171.721 43.08C172.254 42.6933 172.641 42.14 172.881 41.42C173.134 40.7 173.261 39.84 173.261 38.84C173.261 37.3333 172.981 36.1533 172.421 35.3C171.861 34.4467 170.941 34.02 169.661 34.02C168.807 34.02 168.114 34.2133 167.581 34.6C167.047 34.9867 166.654 35.54 166.401 36.26C166.147 36.98 166.021 37.84 166.021 38.84Z" fill="white"/>
<path d="M178.039 41.4V39H184.159V41.4H178.039Z" fill="white"/>
<path d="M186.391 46V31.72H197.691V46H194.671V34.24H189.411V46H186.391Z" fill="white"/>
<path d="M205.853 31.72C207.693 31.72 209.033 32.12 209.873 32.92C210.726 33.7067 211.153 34.7933 211.153 36.18C211.153 36.8067 211.06 37.4067 210.873 37.98C210.686 38.54 210.373 39.0467 209.933 39.5C209.506 39.94 208.94 40.2867 208.233 40.54C207.526 40.7933 206.653 40.92 205.613 40.92H204.313V46H201.293V31.72H205.853ZM205.693 34.2H204.313V38.44H205.313C205.886 38.44 206.38 38.3667 206.793 38.22C207.206 38.0733 207.526 37.84 207.753 37.52C207.98 37.2 208.093 36.7867 208.093 36.28C208.093 35.5733 207.9 35.0533 207.513 34.72C207.126 34.3733 206.52 34.2 205.693 34.2Z" fill="white"/>
<path d="M226.812 38.84C226.812 39.9467 226.672 40.9533 226.392 41.86C226.125 42.7533 225.712 43.5267 225.152 44.18C224.605 44.8333 223.898 45.3333 223.032 45.68C222.178 46.0267 221.172 46.2 220.012 46.2C218.852 46.2 217.838 46.0267 216.972 45.68C216.118 45.32 215.412 44.82 214.852 44.18C214.305 43.5267 213.892 42.7467 213.612 41.84C213.345 40.9333 213.212 39.9267 213.212 38.82C213.212 37.34 213.452 36.0533 213.932 34.96C214.425 33.8667 215.172 33.02 216.172 32.42C217.185 31.8067 218.472 31.5 220.032 31.5C221.578 31.5 222.852 31.8067 223.852 32.42C224.852 33.02 225.592 33.8733 226.072 34.98C226.565 36.0733 226.812 37.36 226.812 38.84ZM216.392 38.84C216.392 39.84 216.518 40.7 216.772 41.42C217.025 42.14 217.418 42.6933 217.952 43.08C218.485 43.4667 219.172 43.66 220.012 43.66C220.878 43.66 221.572 43.4667 222.092 43.08C222.625 42.6933 223.012 42.14 223.252 41.42C223.505 40.7 223.632 39.84 223.632 38.84C223.632 37.3333 223.352 36.1533 222.792 35.3C222.232 34.4467 221.312 34.02 220.032 34.02C219.178 34.02 218.485 34.2133 217.952 34.6C217.418 34.9867 217.025 35.54 216.772 36.26C216.518 36.98 216.392 37.84 216.392 38.84Z" fill="white"/>
<path d="M235.81 46L232.37 34.8H232.29C232.303 35.0667 232.323 35.4667 232.35 36C232.376 36.5333 232.403 37.1067 232.43 37.72C232.456 38.32 232.47 38.8667 232.47 39.36V46H229.77V31.72H233.89L237.27 42.64H237.33L240.91 31.72H245.03V46H242.21V39.24C242.21 38.7867 242.216 38.2667 242.23 37.68C242.256 37.0933 242.276 36.54 242.29 36.02C242.316 35.4867 242.336 35.0867 242.35 34.82H242.27L238.59 46H235.81Z" fill="white"/>
<path d="M248.637 46V31.72H251.657V37.2H252.637C253.957 37.2 255.043 37.3867 255.897 37.76C256.75 38.1333 257.377 38.6467 257.777 39.3C258.19 39.9533 258.397 40.7 258.397 41.54C258.397 42.4733 258.19 43.2733 257.777 43.94C257.363 44.6067 256.723 45.12 255.857 45.48C255.003 45.8267 253.897 46 252.537 46H248.637ZM252.457 43.52C253.35 43.52 254.05 43.3733 254.557 43.08C255.077 42.7867 255.337 42.2733 255.337 41.54C255.337 41.0333 255.217 40.6467 254.977 40.38C254.75 40.1133 254.41 39.9333 253.957 39.84C253.503 39.7333 252.957 39.68 252.317 39.68H251.657V43.52H252.457ZM260.137 46V31.72H263.157V46H260.137Z" fill="white"/>
<path d="M284.722 46H266.762V31.72H269.782V43.48H274.222V31.72H277.262V43.48H281.702V31.72H284.722V46Z" fill="white"/>
<path d="M299.624 46H296.604V34.24H293.104C293.024 34.8533 292.938 35.52 292.844 36.24C292.764 36.96 292.671 37.6933 292.564 38.44C292.471 39.1733 292.371 39.8733 292.264 40.54C292.158 41.1933 292.051 41.7733 291.944 42.28C291.771 43.1067 291.538 43.8133 291.244 44.4C290.964 44.9867 290.571 45.4333 290.064 45.74C289.571 46.0467 288.924 46.2 288.124 46.2C287.858 46.2 287.604 46.18 287.364 46.14C287.124 46.1 286.898 46.0467 286.684 45.98V43.5C286.858 43.5533 287.024 43.6 287.184 43.64C287.358 43.68 287.544 43.7 287.744 43.7C288.011 43.7 288.231 43.6133 288.404 43.44C288.578 43.2667 288.731 42.9733 288.864 42.56C288.998 42.1333 289.131 41.5467 289.264 40.8C289.331 40.48 289.411 40.0267 289.504 39.44C289.598 38.84 289.704 38.14 289.824 37.34C289.958 36.5267 290.091 35.6467 290.224 34.7C290.358 33.74 290.484 32.7467 290.604 31.72H299.624V46Z" fill="white"/>
<path d="M311.447 46H303.227V31.72H311.447V34.2H306.247V37.34H311.087V39.82H306.247V43.5H311.447V46Z" fill="white"/>
<path d="M326.118 46H323.098V39.84H317.438V46H314.418V31.72H317.438V37.32H323.098V31.72H326.118V46Z" fill="white"/>
<path d="M341.411 46H338.391V39.84H332.731V46H329.711V31.72H332.731V37.32H338.391V31.72H341.411V46Z" fill="white"/>
<path d="M353.744 46L352.704 42.6H347.504L346.464 46H343.204L348.244 31.66H351.944L357.004 46H353.744ZM350.944 36.74C350.877 36.5133 350.791 36.2267 350.684 35.88C350.577 35.5333 350.471 35.18 350.364 34.82C350.257 34.46 350.171 34.1467 350.104 33.88C350.037 34.1467 349.944 34.48 349.824 34.88C349.717 35.2667 349.611 35.64 349.504 36C349.411 36.3467 349.337 36.5933 349.284 36.74L348.264 40.06H351.984L350.944 36.74Z" fill="white"/>
<path d="M363.613 40.52L360.273 46H356.913L360.973 39.72C360.586 39.56 360.199 39.3267 359.813 39.02C359.426 38.7 359.106 38.28 358.853 37.76C358.599 37.2267 358.473 36.5733 358.473 35.8C358.473 34.48 358.946 33.4733 359.893 32.78C360.839 32.0733 362.166 31.72 363.873 31.72H368.513V46H365.493V40.52H363.613ZM363.993 34.2C363.473 34.2 363.026 34.26 362.653 34.38C362.293 34.5 362.013 34.6933 361.813 34.96C361.626 35.2267 361.533 35.58 361.533 36.02C361.533 36.6467 361.739 37.1467 362.153 37.52C362.579 37.88 363.219 38.06 364.073 38.06H365.493V34.2H363.993Z" fill="white"/>
<path d="M83.6368 72V57.72H94.9368V72H91.9168V60.24H86.6568V72H83.6368Z" fill="white"/>
<path d="M107.279 72L106.239 68.6H101.039L99.9992 72H96.7392L101.779 57.66H105.479L110.539 72H107.279ZM104.479 62.74C104.412 62.5133 104.326 62.2267 104.219 61.88C104.112 61.5333 104.006 61.18 103.899 60.82C103.792 60.46 103.706 60.1467 103.639 59.88C103.572 60.1467 103.479 60.48 103.359 60.88C103.252 61.2667 103.146 61.64 103.039 62C102.946 62.3467 102.872 62.5933 102.819 62.74L101.799 66.06H105.519L104.479 62.74Z" fill="white"/>
<path d="M123.648 72H120.628V60.24H117.128C117.048 60.8533 116.961 61.52 116.868 62.24C116.788 62.96 116.694 63.6933 116.588 64.44C116.494 65.1733 116.394 65.8733 116.288 66.54C116.181 67.1933 116.074 67.7733 115.968 68.28C115.794 69.1067 115.561 69.8133 115.268 70.4C114.988 70.9867 114.594 71.4333 114.088 71.74C113.594 72.0467 112.948 72.2 112.148 72.2C111.881 72.2 111.628 72.18 111.388 72.14C111.148 72.1 110.921 72.0467 110.708 71.98V69.5C110.881 69.5533 111.048 69.6 111.208 69.64C111.381 69.68 111.568 69.7 111.768 69.7C112.034 69.7 112.254 69.6133 112.428 69.44C112.601 69.2667 112.754 68.9733 112.888 68.56C113.021 68.1333 113.154 67.5467 113.288 66.8C113.354 66.48 113.434 66.0267 113.528 65.44C113.621 64.84 113.728 64.14 113.848 63.34C113.981 62.5267 114.114 61.6467 114.248 60.7C114.381 59.74 114.508 58.7467 114.628 57.72H123.648V72Z" fill="white"/>
<path d="M135.99 72L134.95 68.6H129.75L128.71 72H125.45L130.49 57.66H134.19L139.25 72H135.99ZM133.19 62.74C133.123 62.5133 133.037 62.2267 132.93 61.88C132.823 61.5333 132.717 61.18 132.61 60.82C132.503 60.46 132.417 60.1467 132.35 59.88C132.283 60.1467 132.19 60.48 132.07 60.88C131.963 61.2667 131.857 61.64 131.75 62C131.657 62.3467 131.583 62.5933 131.53 62.74L130.51 66.06H134.23L133.19 62.74Z" fill="white"/>
<path d="M145.152 72H142.132V60.24H138.252V57.72H149.032V60.24H145.152V72Z" fill="white"/>
<path d="M158.568 72L157.528 68.6H152.328L151.288 72H148.028L153.068 57.66H156.768L161.828 72H158.568ZM155.768 62.74C155.702 62.5133 155.615 62.2267 155.508 61.88C155.402 61.5333 155.295 61.18 155.188 60.82C155.082 60.46 154.995 60.1467 154.928 59.88C154.862 60.1467 154.768 60.48 154.648 60.88C154.542 61.2667 154.435 61.64 154.328 62C154.235 62.3467 154.162 62.5933 154.108 62.74L153.088 66.06H156.808L155.768 62.74Z" fill="white"/>
<path d="M177.813 57.72V60.22H171.813V72H168.793V57.72H177.813Z" fill="white"/>
<path d="M178.644 67.4V65H184.764V67.4H178.644Z" fill="white"/>
<path d="M198.636 72H195.196L190.016 64.76V72H186.996V57.72H190.016V64.64L195.136 57.72H198.356L193.156 64.58L198.636 72Z" fill="white"/>
<path d="M214.33 72L213.29 68.6H208.09L207.05 72H203.79L208.83 57.66H212.53L217.59 72H214.33ZM211.53 62.74C211.463 62.5133 211.377 62.2267 211.27 61.88C211.163 61.5333 211.057 61.18 210.95 60.82C210.843 60.46 210.757 60.1467 210.69 59.88C210.623 60.1467 210.53 60.48 210.41 60.88C210.303 61.2667 210.197 61.64 210.09 62C209.997 62.3467 209.923 62.5933 209.87 62.74L208.85 66.06H212.57L211.53 62.74Z" fill="white"/>
<path d="M231.099 72H228.079V65.84H222.419V72H219.399V57.72H222.419V63.32H228.079V57.72H231.099V72Z" fill="white"/>
<path d="M243.432 72L242.392 68.6H237.192L236.152 72H232.892L237.932 57.66H241.632L246.692 72H243.432ZM240.632 62.74C240.565 62.5133 240.478 62.2267 240.372 61.88C240.265 61.5333 240.158 61.18 240.052 60.82C239.945 60.46 239.858 60.1467 239.792 59.88C239.725 60.1467 239.632 60.48 239.512 60.88C239.405 61.2667 239.298 61.64 239.192 62C239.098 62.3467 239.025 62.5933 238.972 62.74L237.952 66.06H241.672L240.632 62.74Z" fill="white"/>
<path d="M248.5 72V57.72H259.8V72H256.78V60.24H251.52V72H248.5Z" fill="white"/>
<path d="M272.142 72L271.102 68.6H265.902L264.862 72H261.602L266.642 57.66H270.342L275.402 72H272.142ZM269.342 62.74C269.276 62.5133 269.189 62.2267 269.082 61.88C268.976 61.5333 268.869 61.18 268.762 60.82C268.656 60.46 268.569 60.1467 268.502 59.88C268.436 60.1467 268.342 60.48 268.222 60.88C268.116 61.2667 268.009 61.64 267.902 62C267.809 62.3467 267.736 62.5933 267.682 62.74L266.662 66.06H270.382L269.342 62.74Z" fill="white"/>
</g>
<path d="M16.5421 10.6247L0.849121 0V8.38888C0.851575 10.3604 1.33634 12.3013 2.26097 14.0417C3.1856 15.782 4.52191 17.2687 6.15292 18.3717L21.8459 29V20.6111C21.8431 18.6391 21.3582 16.6978 20.4336 14.957C19.5091 13.2161 18.1729 11.7287 16.5421 10.6247V10.6247Z" fill="#0F4C81"/>
<path d="M57.1451 10.6194C55.5122 11.7241 54.1748 13.2132 53.2502 14.9559C52.3255 16.6986 51.8417 18.6419 51.8413 20.6153V29L67.5379 18.377C69.1703 17.2728 70.5072 15.7844 71.4313 14.0422C72.3554 12.3 72.8384 10.3574 72.8381 8.38466V0L57.1451 10.6194Z" fill="#C0D725"/>
<path d="M51.8853 57.9872L17.8467 35V42.6956C17.847 44.5401 18.3003 46.3565 19.1669 47.9854C20.0334 49.6143 21.2867 51.006 22.8169 52.0386L56.8407 75V67.2934C56.8388 65.4558 56.3862 63.6467 55.5223 62.0244C54.6584 60.402 53.4096 59.0159 51.8853 57.9872V57.9872Z" fill="#0F4C81"/>
<path d="M46.6489 68L39.8433 72.5064V86L56.8407 74.745L46.6489 68Z" fill="#C0D725"/>
<path d="M36.5314 47.3801L38.8442 49V37L36.3275 38.7886L33.8442 37.0246V45.472L36.5314 47.3801Z" fill="#A5B8D0"/>
<path d="M40.0589 46.4502V49.8554L38.8433 49.0372L47.5827 55L51.8575 52.0886C53.3919 51.0425 54.6486 49.6323 55.5174 47.9816C56.3862 46.331 56.8405 44.4903 56.8405 42.6212V35L40.0589 46.4502Z" fill="#C0D725"/>
<path d="M33.8442 59V90.228C33.8442 90.9631 34.1076 91.6682 34.5765 92.1881C35.0453 92.7079 35.6812 93 36.3442 93C37.0073 93 37.6432 92.7079 38.112 92.1881C38.5808 91.6682 38.8442 90.9631 38.8442 90.228V62.7441L33.8442 59Z" fill="#A5B8D0"/>
<path d="M33.9303 59.7893L36.8366 61.7772L36.8438 61.7699L26.9509 55L17.8467 61.2264L27.7432 68L33.9303 63.7652V59.7893Z" fill="#C0D725"/>
<path d="M33.8442 72.2277L17.8467 61V68.9303C17.8468 70.7293 18.2718 72.5009 19.0842 74.0898C19.8966 75.6786 21.0718 77.0363 22.5067 78.0438L33.8442 86V72.2277Z" fill="#0F4C81"/>
<path d="M39.8433 72L43.8433 83.0175L39.8433 86" fill="#B4C614"/>
<path d="M38.8442 63L33.8442 61.9505V59L38.8442 63Z" fill="#96A8BC"/>
<path d="M33.8442 37.0273V39.6947L36.3275 42L38.8442 39.8544V37L36.3275 38.9821L33.8442 37.0273Z" fill="#96A8BC"/>
<path d="M26.8452 55L31.4638 65L33.8452 63.4299V59.6119L26.8452 55Z" fill="#B4C614"/>
<path d="M36.8434 14C32.8661 14.001 29.0519 15.5733 26.2395 18.3712C23.4271 21.1691 21.8467 24.9636 21.8457 28.9205L36.8434 39L51.8411 28.9205C51.8401 24.9636 50.2597 21.1691 47.4473 18.3712C44.6349 15.5733 40.8207 14.001 36.8434 14V14Z" fill="#0F4C81"/>
</svg>
